# xmcd
#
# Track frame offsets:
#	150
#	13651
#	38879
#	56586
#	74091
#	89294
#	101543
#	126059
#	139739
#	152706
#
# Disc length: 2254 seconds
# Revision: 0
# Processed by: cddbd v1.5.2PL0 Copyright (c) Steve Scherf et al.
# Submitted via: dBpowerAMP V12.0
#
DISCID=8608cc0a
DTITLE=Dottie Rambo - Love Letters
DYEAR=1977
DGENRE=Country
TTITLE0=He Knows Just When To Give The Song
TTITLE1=Love Letters
TTITLE2=I Go To The Rock
TTITLE3=Sweet Mountain Mornin'
TTITLE4=Mary Was The First To Carry The Gospel
TTITLE5=The World Needs Some Good News, Bad
TTITLE6=Home's Where The Heart Is
TTITLE7=I'll Only Love Him Forever
TTITLE8=Home Never Looked So Good To Me
TTITLE9=I'll Still Feel The Same About You
EXTD=
EXTT0=
EXTT1=
EXTT2=
EXTT3=
EXTT4=
EXTT5=
EXTT6=
EXTT7=
EXTT8=
EXTT9=
PLAYORDER=
